# xmcd CD database file
# Copyright (C) 1993-1998 Ti Kan
#
# Track frame offsets:
#	182
#	14167
#	37262
#	47272
#	60332
#	87012
#	100607
#	112627
#	137040
#	151290
#	165962
#	191145
#	203627
#
# Disc length: 2941 seconds
#
# Revision: 1
# Processed by: cddbd v1.4b41PL1 Copyright (c) Steve Scherf et al.
# Submitted via: CDValet v3.31 - Copyright (c) 1997 Greg Leichner
#
DISCID=980b7b0d
DTITLE=Gerry Beaudoin And The Boston Jazz Ensemble - Sentimenta
DTITLE=l Over You
DYEAR=1900
DGENRE=
TTITLE0=Witchcraft
TTITLE1=Misty
TTITLE2=I'm Getting Sentimental Over You
TTITLE3=Just In Time
TTITLE4=I Got It Bad
TTITLE5=What'll I Do
TTITLE6=Seven Come Eleven
TTITLE7=Chelsea Bridge
TTITLE8=The Days Of Wine And Roses
TTITLE9=Shiny Stockings
TTITLE10=This Love Of Mine
TTITLE11=Move
TTITLE12=My Romance
EXTD=
EXTT0=
EXTT1=
EXTT2=
EXTT3=
EXTT4=
EXTT5=
EXTT6=
EXTT7=
EXTT8=
EXTT9=
EXTT10=
EXTT11=
EXTT12=
PLAYORDER=
